<?xml version="1.0" encoding="UTF-8" standalone="no"?>
<svg
   xmlns:dc="http://purl.org/dc/elements/1.1/"
   xmlns:cc="http://creativecommons.org/ns#"
   xmlns:rdf="http://www.w3.org/1999/02/22-rdf-syntax-ns#"
   xmlns:svg="http://www.w3.org/2000/svg"
   xmlns="http://www.w3.org/2000/svg"
   xmlns:sodipodi="http://sodipodi.sourceforge.net/DTD/sodipodi-0.dtd"
   xmlns:inkscape="http://www.inkscape.org/namespaces/inkscape"
   sodipodi:docname="текст.svg"
   inkscape:version="1.0beta2 (2b71d25, 2019-12-03)"
   id="svg8"
   version="1.1"
   viewBox="0 0 210 297"
   height="297mm"
   width="210mm">
  <defs
     id="defs2" />
  <sodipodi:namedview
     inkscape:window-maximized="0"
     inkscape:window-y="0"
     inkscape:window-x="0"
     inkscape:window-height="900"
     inkscape:window-width="1440"
     inkscape:snap-global="false"
     inkscape:snap-nodes="true"
     showgrid="false"
     inkscape:document-rotation="0"
     inkscape:current-layer="layer2"
     inkscape:document-units="mm"
     inkscape:cy="100.45504"
     inkscape:cx="309.38522"
     inkscape:zoom="0.7215351"
     inkscape:pageshadow="2"
     inkscape:pageopacity="0.0"
     borderopacity="1.0"
     bordercolor="#666666"
     pagecolor="#ffffff"
     id="base" />
  <metadata
     id="metadata5">
    <rdf:RDF>
      <cc:Work
         rdf:about="">
        <dc:format>image/svg+xml</dc:format>
        <dc:type
           rdf:resource="http://purl.org/dc/dcmitype/StillImage" />
        <dc:title></dc:title>
      </cc:Work>
    </rdf:RDF>
  </metadata>
  <g
     sodipodi:insensitive="true"
     inkscape:label="Слой 2"
     id="layer2"
     inkscape:groupmode="layer">
    <path
       inkscape:connector-curvature="0"
       d="M 64.029169,-16.933333 V -6.3499999 H 8.7973966 L -35.189583,33.3375 H 64.029169 V 43.920833 H 130.17501 V 33.3375 h 66.14583 L 229.39375,-6.3499999 H 130.17501 V -16.933333 Z"
       style="opacity:1;fill:#ffff53;fill-opacity:1;stroke:#7d7d7d;stroke-width:5.29167;stroke-linecap:round;stroke-linejoin:miter;stroke-miterlimit:4.2;stroke-dasharray:none;stroke-opacity:1;paint-order:normal"
       id="rect1229" />
  </g>
  <g
     sodipodi:insensitive="true"
     id="layer1"
     inkscape:groupmode="layer"
     inkscape:label="Слой 1">
    <path
       inkscape:connector-curvature="0"
       d="m 5.4239582,0 v 26.803014 h 5.7707068 l 0.258382,-0.964798 c 0.803857,0.459346 1.561777,0.798285 2.273763,1.016476 0.711987,0.218189 1.549948,0.327112 2.514576,0.327112 2.308215,-2e-6 4.243552,-0.947402 5.80533,-2.842205 1.561777,-1.906287 2.342493,-4.398409 2.342493,-7.476029 0,-3.112071 -0.614547,-5.54643 -1.843299,-7.3034303 -1.217268,-1.7569981 -2.950952,-2.6354979 -5.201749,-2.6354979 -1.205784,0 -2.268193,0.2355869 -3.186886,0.7064169 -0.918691,0.47083 -1.819986,1.0848599 -2.704228,1.8427816 V 0 Z m 9.2154578,11.610144 c 1.217268,0 2.119078,0.413411 2.704745,1.240234 0.08046,0.113596 0.153939,0.240584 0.223242,0.375171 0.149867,-0.007 0.297328,-0.0095 0.44235,-0.0067 1.218353,0.02369 2.264348,0.370787 3.213241,0.736389 0.01799,0.0057 0.03628,-8.6e-5 0.05426,0.0057 l -0.0016,0.0057 c 0.01318,0.0051 0.03182,0.0047 0.04496,0.0098 a 0.74260923,0.74260923 0 0 1 -0.496093,1.398364 c -0.907008,-0.291042 -1.818256,-0.425407 -2.740918,-0.413412 0.08257,0.537963 0.127449,1.146757 0.134875,1.826246 1.366296,0.495725 2.348959,1.324944 3.182235,2.13992 0.01044,0.009 0.02473,0.01057 0.03514,0.01964 l -0.0021,0.0041 c 0.0095,0.0093 0.02566,0.01599 0.03514,0.02532 a 0.74260923,0.74260923 0 0 1 -1.00769,1.089856 c -0.714668,-0.622256 -1.494654,-1.103868 -2.341976,-1.456759 -0.09569,0.705114 -0.256968,1.322865 -0.486792,1.848983 7.14e-4,6.61e-4 0.0013,0.0014 0.0021,0.0021 0.120801,0.110476 0.235943,0.222995 0.345199,0.337447 0.0015,0.0016 0.0032,0.0031 0.0047,0.0047 0.0017,0.0018 0.003,0.0039 0.0047,0.0057 0.107092,0.112621 0.209475,0.226368 0.306441,0.342098 0.0022,0.0026 0.0046,0.0052 0.0067,0.0078 0.002,0.0024 0.0037,0.0049 0.0057,0.0072 0.09555,0.114648 0.186721,0.230291 0.273369,0.347265 0.0025,0.0033 0.0053,0.0065 0.0078,0.0098 0.0016,0.0022 0.003,0.0045 0.0047,0.0067 0.08886,0.120604 0.173759,0.242019 0.254248,0.364319 0.07722,0.117331 0.151224,0.23525 0.221692,0.353466 0.0043,0.0071 0.0092,0.01408 0.01344,0.02119 0.0018,0.003 0.0034,0.0063 0.0052,0.0093 0.0712,0.120409 0.139381,0.240643 0.204639,0.361218 0.0011,0.0021 0.0025,0.0041 0.0036,0.0062 1.82e-4,3.44e-4 3.44e-4,6.88e-4 5.29e-4,10e-4 0.13557,0.250903 0.260253,0.501376 0.376721,0.748274 0.0076,0.01376 0.02194,0.02133 0.02946,0.03514 l -0.0036,0.0021 c 0.0061,0.01297 0.01927,0.02632 0.02532,0.03927 a 0.74288755,0.74288755 0 0 1 0.0098,0.02015 0.74300508,0.74300508 0 0 1 0.0062,0.01344 0.74288755,0.74288755 0 0 1 0.0031,0.0083 0.74288755,0.74288755 0 0 1 0.01085,0.02635 0.74288755,0.74288755 0 0 1 0.0078,0.02067 0.74300508,0.74300508 0 0 1 0.001,0.0031 0.74300508,0.74300508 0 0 1 0.0098,0.03049 0.74288755,0.74288755 0 0 1 5.29e-4,0.0021 0.74300508,0.74300508 0 0 1 0.0041,0.01447 0.74288755,0.74288755 0 0 1 0.0057,0.02119 0.74300508,0.74300508 0 0 1 0.001,0.0052 0.74300508,0.74300508 0 0 1 0.0057,0.02584 0.74288755,0.74288755 0 0 1 10e-4,0.0057 0.74300508,0.74300508 0 0 1 0.0026,0.01499 0.74288755,0.74288755 0 0 1 0.0036,0.0217 0.74300508,0.74300508 0 0 1 5.29e-4,0.0057 0.74300508,0.74300508 0 0 1 0.0026,0.02377 0.74288755,0.74288755 0 0 1 0.001,0.0078 0.74300508,0.74300508 0 0 1 10e-4,0.01499 0.74288755,0.74288755 0 0 1 0.001,0.02222 0.74300508,0.74300508 0 0 1 0,0.0036 0.74300508,0.74300508 0 0 1 5.29e-4,0.02274 0.74288755,0.74288755 0 0 1 -5.29e-4,0.0217 0.74300508,0.74300508 0 0 1 0,0.0041 0.74288755,0.74288755 0 0 1 -0.001,0.02222 0.74300508,0.74300508 0 0 1 -10e-4,0.01499 0.74288755,0.74288755 0 0 1 -0.001,0.0078 0.74288755,0.74288755 0 0 1 -0.0031,0.02791 0.74300508,0.74300508 0 0 1 0,0.0016 0.74288755,0.74288755 0 0 1 -0.0031,0.0217 0.74300508,0.74300508 0 0 1 -0.001,0.0062 0.74300508,0.74300508 0 0 1 -0.0062,0.03049 0.74300508,0.74300508 0 0 1 -0.0078,0.03152 0.74288755,0.74288755 0 0 1 -10e-4,0.0047 0.74300508,0.74300508 0 0 1 -0.0041,0.01447 0.74288755,0.74288755 0 0 1 -0.0067,0.02119 0.74300508,0.74300508 0 0 1 -5.29e-4,10e-4 0.74300508,0.74300508 0 0 1 -0.01189,0.03411 0.74300508,0.74300508 0 0 1 -0.01292,0.03256 0.74288755,0.74288755 0 0 1 -10e-4,0.0021 0.74300508,0.74300508 0 0 1 -0.001,0.0021 0.74300508,0.74300508 0 0 1 -0.01499,0.03152 0.74300508,0.74300508 0 0 1 -0.01654,0.03049 0.74288755,0.74288755 0 0 1 -0.001,0.0026 0.74300508,0.74300508 0 0 1 -10e-4,0.0016 0.74300508,0.74300508 0 0 1 -0.01344,0.02274 0.74288755,0.74288755 0 0 1 -0.0047,0.0078 0.74300508,0.74300508 0 0 1 -0.0083,0.0124 0.74288755,0.74288755 0 0 1 -0.0124,0.0186 0.74300508,0.74300508 0 0 1 -0.0031,0.0041 0.74300508,0.74300508 0 0 1 -0.01964,0.02584 0.74300508,0.74300508 0 0 1 -0.02377,0.02842 0.74300508,0.74300508 0 0 1 -0.0098,0.01137 0.74288755,0.74288755 0 0 1 -0.01499,0.01602 0.74300508,0.74300508 0 0 1 -0.0016,0.0016 0.74300508,0.74300508 0 0 1 -0.02532,0.02481 0.74300508,0.74300508 0 0 1 -0.02067,0.0186 0.74288755,0.74288755 0 0 1 -0.0067,0.0062 0.74300508,0.74300508 0 0 1 -0.01188,0.0098 0.74288755,0.74288755 0 0 1 -0.01757,0.01344 0.74300508,0.74300508 0 0 1 -0.02222,0.01654 0.74288755,0.74288755 0 0 1 -0.0078,0.0057 0.74300508,0.74300508 0 0 1 -0.0124,0.0083 0.74288755,0.74288755 0 0 1 -0.0186,0.01188 0.74300508,0.74300508 0 0 1 -0.01292,0.0078 0.74288755,0.74288755 0 0 1 -0.01964,0.01085 0.74300508,0.74300508 0 0 1 -0.01292,0.0072 0.74288755,0.74288755 0 0 1 -0.0093,0.0047 0.74288755,0.74288755 0 0 1 -0.01964,0.0098 0.74300508,0.74300508 0 0 1 -0.0047,0.0021 0.74288755,0.74288755 0 0 1 -0.02015,0.0088 0.74300508,0.74300508 0 0 1 -0.03049,0.0124 0.74300508,0.74300508 0 0 1 -0.0186,0.0067 0.74288755,0.74288755 0 0 1 -0.02119,0.0067 0.74300508,0.74300508 0 0 1 -0.03256,0.0093 0.74300508,0.74300508 0 0 1 -0.01757,0.0047 0.74288755,0.74288755 0 0 1 -0.0217,0.0047 0.74300508,0.74300508 0 0 1 -0.0026,5.3e-4 0.74300508,0.74300508 0 0 1 -0.0248,0.0047 0.74300508,0.74300508 0 0 1 -0.02429,0.0036 0.74288755,0.74288755 0 0 1 -0.01395,0.0016 0.74300508,0.74300508 0 0 1 -0.01085,0.001 0.74300508,0.74300508 0 0 1 -0.03462,0.0026 0.74300508,0.74300508 0 0 1 -0.06976,5.29e-4 0.74300508,0.74300508 0 0 1 -0.0047,0 0.74288755,0.74288755 0 0 1 -0.0072,-5.29e-4 0.74300508,0.74300508 0 0 1 -0.02997,-0.0026 0.74300508,0.74300508 0 0 1 -0.03722,-0.0047 0.74300508,0.74300508 0 0 1 -0.02791,-0.0047 0.74288755,0.74288755 0 0 1 -0.0088,-0.0016 0.74300508,0.74300508 0 0 1 -0.02894,-0.0067 0.74288755,0.74288755 0 0 1 -0.0093,-0.0021 0.74300508,0.74300508 0 0 1 -0.03359,-0.0098 0.74300508,0.74300508 0 0 1 -0.03462,-0.01137 0.74288755,0.74288755 0 0 1 -0.0031,-10e-4 0.74300508,0.74300508 0 0 1 -0.02377,-0.0093 0.74288755,0.74288755 0 0 1 -0.01292,-0.0057 0.74300508,0.74300508 0 0 1 -0.02067,-0.0093 0.74288755,0.74288755 0 0 1 -0.02222,-0.01085 0.74300508,0.74300508 0 0 1 -0.02015,-0.01033 0.74288755,0.74288755 0 0 1 -0.0078,-0.0041 0.74300508,0.74300508 0 0 1 -0.0217,-0.01292 0.74288755,0.74288755 0 0 1 -0.0031,-0.0021 0.74300508,0.74300508 0 0 1 -0.03101,-0.02015 0.74300508,0.74300508 0 0 1 -0.02997,-0.0217 0.74300508,0.74300508 0 0 1 -0.02687,-0.0217 0.74288755,0.74288755 0 0 1 -0.0052,-0.0041 0.74300508,0.74300508 0 0 1 -0.01654,-0.01447 0.74288755,0.74288755 0 0 1 -0.01344,-0.01292 0.74300508,0.74300508 0 0 1 -0.0217,-0.02119 0.74300508,0.74300508 0 0 1 -0.02481,-0.02739 0.74300508,0.74300508 0 0 1 -0.01654,-0.01912 0.74288755,0.74288755 0 0 1 -0.01654,-0.02119 0.74300508,0.74300508 0 0 1 -0.01344,-0.01809 0.74288755,0.74288755 0 0 1 0,-5.3e-4 0.74300508,0.74300508 0 0 1 -0.02067,-0.03049 0.74300508,0.74300508 0 0 1 -0.01912,-0.03152 0.74300508,0.74300508 0 0 1 -0.01809,-0.03307 c -0.06091,-0.111915 -0.124272,-0.221123 -0.189134,-0.329157 -0.03594,-0.05984 -0.07343,-0.118081 -0.110587,-0.176733 -0.0317,-0.05007 -0.06302,-0.100651 -0.0956,-0.149862 -0.03633,-0.05484 -0.07367,-0.108481 -0.111104,-0.162264 -0.03654,-0.05254 -0.07301,-0.105046 -0.110588,-0.156579 -0.04227,-0.05792 -0.0856,-0.114907 -0.129191,-0.171566 -0.02842,-0.03697 -0.05731,-0.07363 -0.0863,-0.110071 -0.0522,-0.06557 -0.105148,-0.130438 -0.159164,-0.194304 -0.02809,-0.03323 -0.05669,-0.06593 -0.08527,-0.0987 -0.04923,-0.05642 -0.09865,-0.112872 -0.149345,-0.167949 -0.03697,-0.04019 -0.07491,-0.07938 -0.112655,-0.118856 -0.05271,-0.0551 -0.105455,-0.110086 -0.15968,-0.163814 -0.02375,-0.02354 -0.0483,-0.04649 -0.07235,-0.06976 -0.06676,-0.06463 -0.133572,-0.129093 -0.202571,-0.19172 -0.684843,0.594179 -1.598362,0.892969 -2.742985,0.892969 -0.401928,0 -0.80977,-0.02888 -1.223181,-0.0863 -0.401928,-0.05742 -0.803683,-0.166341 -1.205612,-0.327112 v -0.489542 c -0.5881,0.597319 -1.118095,1.291927 -1.597316,2.083593 A 0.74260923,0.74260923 0 0 1 8.5390136,23.272998 c 0.015121,-0.03452 0.034406,-0.05224 0.049609,-0.0863 l -0.0031,-0.0021 c 0.00546,-0.0089 0.014237,-0.01342 0.019637,-0.02222 0.7946382,-1.76265 1.7933974,-2.847747 2.8478874,-3.564124 v -1.2113 C 10.45133,18.789535 9.494101,19.385 8.5658852,20.165694 a 0.74260923,0.74260923 0 0 1 -1.028361,-1.067635 c 0.025415,-0.02783 0.04959,-0.03827 0.074931,-0.06563 l -0.00258,-0.0031 c 0.00802,-0.0067 0.017878,-0.0084 0.025838,-0.01499 1.3100122,-1.404188 2.5960018,-2.110369 3.8173378,-2.452563 v -1.53014 c -1.126088,0.03949 -2.2740911,0.29353 -3.4576687,0.751376 A 0.74260923,0.74260923 0 0 1 7.3690591,14.439945 c 0.033066,-0.01809 0.059657,-0.02005 0.092501,-0.03772 l -0.00155,-0.0036 c 0.00975,-0.0037 0.019776,-0.002 0.029456,-0.0057 1.500591,-0.800201 2.8047819,-1.087479 3.9635819,-1.093473 v -0.655774 c 0.516765,-0.344509 1.039098,-0.602891 1.567347,-0.775146 0.53973,-0.172255 1.07929,-0.258383 1.619022,-0.258383 z"
       style="font-style:normal;font-variant:normal;font-weight:bold;font-stretch:normal;font-size:35.2778px;line-height:1.25;font-family:Tahoma;-inkscape-font-specification:'Tahoma Bold';fill:#ffbb00;fill-opacity:1;stroke:#000000;stroke-width:0.264583;stroke-opacity:1"
       id="path837" />
    <path
       inkscape:connector-curvature="0"
       d="M 27.593147,7.4584593 V 20.050455 c 0,2.434536 0.53399,4.260434 1.60197,5.477702 1.079464,1.205785 2.57807,1.808675 4.49585,1.808675 1.205783,0 2.244881,-0.22393 3.117638,-0.671793 0.80585,-0.424132 1.688971,-1.032584 2.641701,-1.809192 a 0.92604165,0.92604165 0 0 1 -0.192754,0.02015 0.92604165,0.92604165 0 0 1 -0.926042,-0.926042 0.92604165,0.92604165 0 0 1 0.114721,-0.44545 c -0.382601,-0.465006 -0.651614,-0.913684 -0.842325,-1.343588 -0.383591,0.107285 -0.730004,0.163298 -1.036114,0.163298 -0.03551,0 -0.06605,-0.0036 -0.100769,-0.0041 -0.328025,1.011909 -0.831125,1.681922 -1.348753,2.205549 a 0.92604165,0.92604165 0 0 1 0.111104,0.43925 0.92604165,0.92604165 0 0 1 -0.926042,0.926042 0.92604165,0.92604165 0 0 1 -0.926042,-0.926042 0.92604165,0.92604165 0 0 1 0.926042,-0.926041 0.92604165,0.92604165 0 0 1 0.263033,0.03824 c 0.469625,-0.525868 0.839356,-1.133587 1.124479,-1.824178 -0.288049,-0.05154 -0.537229,-0.130024 -0.74259,-0.238745 -0.294455,-0.160612 -0.52832,-0.381902 -0.704866,-0.660425 -1.374373,0.01987 -2.498842,-0.318828 -3.480408,-0.68678 -0.01138,-0.0036 -0.02375,-0.0011 -0.03514,-0.0047 l 5.29e-4,-0.0031 c -0.01072,-0.004 -0.02653,-0.0048 -0.03721,-0.0088 a 0.65880926,0.52741763 0 0 1 0.525032,-0.967383 c 0.847715,0.27107 1.710921,0.412511 2.597259,0.434599 -0.03655,-0.195864 -0.0679,-0.39914 -0.08785,-0.618567 -0.0071,-0.09805 -0.01,-0.230033 -0.01603,-0.33693 -1.136081,-0.06073 -2.095064,-0.357757 -2.946591,-0.676962 -0.01138,-0.0036 -0.02375,-0.0011 -0.03514,-0.0047 l 5.29e-4,-0.0031 c -0.01072,-0.004 -0.02653,-0.0048 -0.03721,-0.0088 a 0.65880926,0.52741763 0 0 1 0.525033,-0.966866 c 0.801323,0.256232 1.616089,0.397594 2.451529,0.430981 -0.0043,-0.25374 -0.0092,-0.505582 -0.01035,-0.784448 -1.075939,-0.07656 -1.990237,-0.364047 -2.807062,-0.670243 -0.01138,-0.0036 -0.02375,-0.0011 -0.03514,-0.0047 l 5.29e-4,-0.0031 c -0.01072,-0.004 -0.02653,-0.0053 -0.03721,-0.0093 a 0.65880926,0.52741763 0 0 1 0.525016,-0.966864 c 0.769639,0.246103 1.551969,0.385517 2.352829,0.425813 v -0.866097 c -1.075489,-0.07667 -1.98947,-0.364146 -2.806031,-0.670243 -0.01138,-0.0036 -0.02375,-0.0016 -0.03514,-0.0052 l 5.29e-4,-0.0031 c -0.01072,-0.004 -0.02653,-0.0048 -0.03721,-0.0088 a 0.65880926,0.52741763 0 0 1 0.52502,-0.966867 c 0.769639,0.246103 1.551969,0.385517 2.352829,0.425813 V 13.138216 C 32.5433,13.071202 31.60131,12.778097 30.76298,12.463839 c -0.01138,-0.0036 -0.02375,-0.0016 -0.03514,-0.0052 l 5.29e-4,-0.0031 c -0.01072,-0.004 -0.02653,-0.0048 -0.03721,-0.0088 a 0.65880926,0.52741763 0 0 1 0.525032,-0.966866 c 0.797682,0.255071 1.608707,0.39625 2.440163,0.430465 V 11.03959 c -1.075489,-0.07667 -1.989471,-0.364146 -2.806032,-0.670243 -0.01138,-0.0036 -0.02375,-0.0016 -0.03514,-0.0052 l 5.3e-4,-0.0031 c -0.01072,-0.004 -0.02653,-0.0048 -0.03721,-0.0088 A 0.65880926,0.52741763 0 0 1 31.30351,9.3853794 c 0.769636,0.2461033 1.551972,0.385 2.352829,0.4252971 V 7.4584593 Z m 12.092286,0 v 2.4158731 c 0.688142,-0.055379 1.390714,-0.1750189 2.11305,-0.3627683 a 0.65880926,0.52741763 0 0 1 0.489373,0.9772009 c -0.03015,0.01153 -0.05376,0.01201 -0.08371,0.02325 l 0.0016,0.0026 H 42.2052 c -0.0088,0.0022 -0.01704,7.94e-4 -0.02585,0.0031 -0.91399,0.339774 -1.740025,0.521485 -2.493905,0.592729 v 0.779797 c 0.715738,-0.05176 1.447676,-0.175909 2.200381,-0.371553 a 0.65880926,0.52741763 0 0 1 0.48886,0.977201 c -0.03017,0.01153 -0.05325,0.01201 -0.0832,0.02326 l 0.0011,0.0026 c -0.0088,0.0022 -0.01754,7.94e-4 -0.02635,0.0031 -0.949767,0.353074 -1.803186,0.533847 -2.58072,0.59893 v 0.692464 c 0.743469,-0.0476 1.504387,-0.173635 2.287715,-0.377238 a 0.65880926,0.52741763 0 0 1 0.48886,0.976685 c -0.03017,0.01153 -0.05327,0.01201 -0.0832,0.02325 l 0.0011,0.0026 v 5.29e-4 c -0.0088,0.0022 -0.01754,2.91e-4 -0.02635,0.0026 -0.985723,0.366441 -1.86714,0.546759 -2.668053,0.605131 v 0.854728 c 0.715738,-0.05176 1.447676,-0.175393 2.200381,-0.371037 a 0.65880926,0.52741763 0 0 1 0.48886,0.976685 c -0.03017,0.01153 -0.05325,0.01201 -0.0832,0.02325 l 0.0011,0.0026 v 4.59e-4 c -0.0088,0.0022 -0.01754,2.91e-4 -0.02635,0.0026 -0.94977,0.353075 -1.803183,0.534362 -2.580719,0.599447 v 0.860412 c 0.715737,-0.05176 1.447675,-0.175393 2.20038,-0.371037 a 0.65880926,0.52741763 0 0 1 0.48886,0.976685 c -0.03017,0.01153 -0.05325,0.01201 -0.0832,0.02325 l 0.0011,0.0026 v 5.29e-4 c -0.0088,0.0022 -0.01754,2.91e-4 -0.02635,0.0026 -0.949769,0.353075 -1.803183,0.534362 -2.580719,0.599447 v 0.773079 c 0.715737,-0.05176 1.447675,-0.175397 2.20038,-0.371036 a 0.65880926,0.52741763 0 0 1 0.488861,0.976684 c -0.03017,0.01153 -0.05325,0.01253 -0.0832,0.02377 l 0.0011,0.0026 c -0.0088,0.0022 -0.01754,2.91e-4 -0.02635,0.0026 -0.997532,0.37083 -1.887971,0.551142 -2.696474,0.607198 -0.384575,0.264594 -0.796748,0.484265 -1.235067,0.661458 0.181842,0.390229 0.409493,0.772042 0.675928,1.148768 a 0.92604165,0.92604165 0 0 1 0.247012,-0.03411 0.92604165,0.92604165 0 0 1 0.926042,0.926042 0.92604165,0.92604165 0 0 1 -0.49816,0.821138 v 2.031915 h 6.02893 V 7.4584593 Z"
       style="font-style:normal;font-variant:normal;font-weight:bold;font-stretch:normal;font-size:35.2778px;line-height:1.25;font-family:Tahoma;-inkscape-font-specification:'Tahoma Bold';fill:#ffbb00;fill-opacity:1;stroke:#000000;stroke-width:0.264583;stroke-opacity:1"
       id="path839" />
    <path
       inkscape:connector-curvature="0"
       d="m 62.113003,6.9246418 c -1.090946,0 -2.072796,0.2355869 -2.945556,0.7064169 -0.872757,0.47083 -1.802932,1.1253973 -2.790529,1.9637044 V 7.4584593 H 50.347832 V 26.803014 h 6.029086 v -2.710428 c -0.810511,0.137493 -1.583563,0.372787 -2.323888,0.719336 a 0.43002975,0.58908253 81.17124 0 1 -0.584459,-0.706934 c 0.0089,-0.0047 0.02254,-0.0071 0.03152,-0.01188 l -0.0011,-0.0026 c 0.0096,-0.0044 0.02088,-0.0043 0.03049,-0.0088 0.789207,-0.414348 1.697871,-0.825538 2.847369,-1.010274 V 21.40127 c -0.875517,0.131853 -1.706968,0.376521 -2.501138,0.748275 a 0.43002975,0.58908253 81.17124 0 1 -0.584978,-0.706934 c 0.0089,-0.0047 0.02254,-0.0076 0.03152,-0.0124 l -0.0011,-0.0021 c 0.0096,-0.0044 0.02088,-0.0043 0.03049,-0.0088 0.829339,-0.435417 1.790957,-0.866939 3.025137,-1.036113 v -1.666564 c -0.940625,0.124295 -1.831541,0.373842 -2.678906,0.770495 a 0.43002975,0.58908253 81.17124 0 1 -0.584459,-0.706933 c 0.0089,-0.0047 0.02254,-0.0076 0.03152,-0.0124 l -0.0011,-0.0021 c 0.0096,-0.0044 0.02087,-0.0043 0.03049,-0.0088 0.868812,-0.456143 1.881738,-0.909113 3.202387,-1.059367 v -1.743563 c -0.97354,0.119778 -1.893811,0.372752 -2.767788,0.781865 a 0.43002975,0.58908253 81.17124 0 1 -0.584462,-0.706934 c 0.0089,-0.0047 0.02254,-0.0076 0.03152,-0.0124 l -0.0011,-0.0021 c 0.0096,-0.0044 0.02088,-0.0043 0.03049,-0.0088 0.887963,-0.466197 1.927514,-0.927901 3.291271,-1.067635 v -1.846916 c 0.447863,-0.310059 0.907381,-0.579579 1.378212,-0.809253 0.470829,-0.229673 0.953143,-0.344682 1.44694,-0.344681 0.42667,-1e-6 0.783879,0.04734 1.084173,0.133325 -0.0019,-0.251374 0.006,-0.515296 0.02429,-0.792717 a 1.5029125,1.5029125 0 0 1 -0.981335,-1.4097329 1.5029125,1.5029125 0 0 1 1.475362,-1.5027505 1.5029125,1.5029125 0 0 1 0.02739,0 1.5029125,1.5029125 0 0 1 1.502748,1.5027505 1.5029125,1.5029125 0 0 1 -1.451589,1.5022339 c 0.0011,0.339412 0.01188,0.67129 0.03721,0.993221 0.256892,0.183111 0.453882,0.436439 0.589629,0.762227 0.172252,0.413412 0.275604,0.952971 0.310058,1.619023 0.04593,0.654569 0.06925,1.453026 0.06925,2.394686 v 9.663491 h 6.063195 V 13.091191 c 0.528248,-0.367478 1.016132,-0.648655 1.463995,-0.843877 0.447863,-0.206703 0.901811,-0.310058 1.361157,-0.310058 0.138805,0 0.267374,0.0067 0.392739,0.0155 -0.0011,-0.257569 0.0075,-0.528047 0.02739,-0.81287 a 1.5029125,1.5029125 0 0 1 -0.864031,-1.360124 1.5029125,1.5029125 0 0 1 1.503269,-1.5032675 1.5029125,1.5029125 0 0 1 1.502749,1.5032675 1.5029125,1.5029125 0 0 1 -1.502749,1.50275 1.5029125,1.5029125 0 0 1 -0.07028,-0.0021 c 7.94e-4,0.261372 0.0092,0.516972 0.02429,0.767911 0.188709,0.04679 0.360751,0.104282 0.502296,0.181901 0.367448,0.183738 0.637513,0.482141 0.809767,0.895553 0.172255,0.413412 0.275606,0.947404 0.31006,1.601969 0.01056,0.200669 0.01646,0.442009 0.02376,0.670761 0.902912,0.07888 1.910789,0.326089 3.056144,0.870747 0.0075,0.0026 0.01527,0.0026 0.02273,0.0052 l -0.0011,0.0016 c 0.02551,0.01229 0.04614,0.01536 0.07183,0.02791 a 0.58908253,0.43002975 6.7070621 0 1 -0.5271,0.740006 c -0.885376,-0.322944 -1.749412,-0.53635 -2.601908,-0.63407 0.0026,0.241023 0.0072,0.465781 0.0072,0.729672 v 0.752913 c 0.872701,0.08979 1.844087,0.34036 2.939872,0.861446 0.0077,0.0027 0.01511,0.0024 0.02273,0.0052 l -0.0011,0.0021 c 0.0255,0.01229 0.04614,0.01484 0.07183,0.02739 A 0.58908253,0.43002975 6.7070621 0 1 75.9701,19.528628 C 75.117862,19.21777 74.285744,19.010917 73.464311,18.908511 v 1.646414 c 0.872702,0.08979 1.844088,0.34088 2.939873,0.861963 0.0077,0.0027 0.01511,0.0019 0.02273,0.0047 l -0.0011,0.0021 c 0.02551,0.01229 0.04614,0.01536 0.07183,0.02791 A 0.58908253,0.43002975 6.7070621 0 1 75.97033,22.191407 C 75.118094,21.880551 74.285971,21.673696 73.464541,21.57129 v 1.746147 c 0.849939,0.09729 1.791816,0.346918 2.850988,0.850594 0.0077,0.0027 0.01564,0.0019 0.02326,0.0047 l -0.0016,0.0021 c 0.0255,0.01229 0.04614,0.01536 0.07183,0.02791 a 0.58908253,0.43002975 6.7070621 0 1 -0.5271,0.740006 c -0.821714,-0.299723 -1.624642,-0.501063 -2.417424,-0.607198 v 2.467549 H 79.52769 V 14.211019 c 0,-1.37804 -0.137803,-2.492125 -0.413412,-3.341915 C 78.850195,10.007829 78.448412,9.2671348 77.908678,8.6470174 77.414881,8.0728343 76.811991,7.6421979 76.100005,7.3551065 75.388017,7.068015 74.58399,6.9246418 73.688264,6.9246418 c -1.056497,0 -2.101678,0.2928327 -3.135209,0.8784995 C 69.531009,8.3773213 68.440238,9.204146 67.280387,10.28361 66.809558,9.1696952 66.126108,8.3312174 65.230385,7.7685179 64.334656,7.2058185 63.295561,6.9246418 62.112744,6.9246418 Z"
       style="font-style:normal;font-variant:normal;font-weight:bold;font-stretch:normal;font-size:35.2778px;line-height:1.25;font-family:Tahoma;-inkscape-font-specification:'Tahoma Bold';fill:#ffbb00;fill-opacity:1;stroke:#000000;stroke-width:0.264583;stroke-opacity:1"
       id="path841" />
    <path
       inkscape:connector-curvature="0"
       d="m 83.972134,0 v 26.803014 h 5.770708 l 0.258382,-0.964798 c 0.803857,0.459346 1.561774,0.798285 2.273763,1.016476 0.711986,0.218189 1.549947,0.327112 2.514576,0.327112 2.308214,-2e-6 4.243551,-0.947402 5.805327,-2.842205 1.56178,-1.906287 2.3425,-4.398409 2.3425,-7.476029 0,-3.112071 -0.61455,-5.54643 -1.8433,-7.3034303 -1.217272,-1.7569984 -2.950957,-2.6354979 -5.201754,-2.6354979 -1.205783,0 -2.268191,0.2355869 -3.186885,0.7064169 -0.918692,0.47083 -1.819984,1.0848599 -2.704227,1.8427816 V 0 Z m 9.215459,11.610144 c 0.869828,0 1.575445,0.21498 2.122868,0.63717 0.324655,-0.03874 0.638363,-0.05395 0.941544,-0.04806 1.218348,0.02369 2.263833,0.368722 3.212724,0.734322 0.01799,0.0057 0.03679,-8.6e-5 0.05478,0.0057 l -0.0016,0.0062 c 0.01318,0.0051 0.0313,0.0047 0.04444,0.0098 a 0.74260923,0.74260923 0 0 1 -0.496093,1.398364 c -0.882582,-0.283203 -1.768785,-0.417346 -2.665987,-0.413411 0.166606,0.539541 0.277791,1.182849 0.330729,1.936315 1.219166,0.500563 2.123964,1.266079 2.898013,2.022099 0.01455,0.01252 0.03409,0.01477 0.04858,0.02739 l -0.0036,0.0036 c 0.01013,0.0099 0.02713,0.01747 0.03721,0.02739 a 0.74260923,0.74260923 0 0 1 -1.009758,1.087789 c -0.60415,-0.526028 -1.255377,-0.950531 -1.953885,-1.282609 -0.04748,0.828259 -0.171413,1.554391 -0.372589,2.177645 0.691404,0.772686 1.150258,1.617321 1.531173,2.423625 0.01011,0.01831 0.02926,0.02811 0.03927,0.04651 l -0.0057,0.0021 c 0.0061,0.01297 0.01926,0.02633 0.02532,0.03927 a 0.74260923,0.74260923 0 0 1 -1.324467,0.66766 c -0.317712,-0.583819 -0.690084,-1.112981 -1.115176,-1.593701 -0.710602,0.830787 -1.741948,1.246952 -3.095419,1.246952 -0.401928,0 -0.80977,-0.02888 -1.223182,-0.0863 -0.401928,-0.05742 -0.803682,-0.16634 -1.205611,-0.327112 v -0.874881 c -0.579382,0.592305 -1.102336,1.280041 -1.575615,2.061889 a 0.74260923,0.74260923 0 0 1 -1.316199,-0.680578 c 0.01514,-0.03452 0.03441,-0.05224 0.04961,-0.0863 l -0.0036,-0.0021 c 0.0054,-0.0089 0.01423,-0.01394 0.01963,-0.02274 0.78921,-1.750606 1.779672,-2.832591 2.826184,-3.549137 v -1.216464 c -0.993804,0.402404 -1.943981,0.994376 -2.865459,1.769401 A 0.74260923,0.74260923 0 0 1 86.107862,18.69033 c 0.0254,-0.02783 0.04907,-0.03827 0.07441,-0.06563 l -0.0026,-0.0031 c 0.008,-0.0067 0.01783,-0.0084 0.02585,-0.01499 1.302263,-1.395883 2.580756,-2.102372 3.795633,-2.446879 v -1.53479 c -1.11913,0.042 -2.259484,0.29544 -3.435451,0.750342 a 0.74260923,0.74260923 0 0 1 -0.626316,-1.343071 c 0.03307,-0.01809 0.05914,-0.02057 0.09198,-0.03824 l -0.0016,-0.0031 v -5.29e-4 c 0.0098,-0.0037 0.01976,-0.002 0.02946,-0.0057 1.491072,-0.795125 2.788565,-1.083913 3.941879,-1.093474 v -0.24753 c 0.516765,-0.344509 1.039098,-0.602891 1.567346,-0.775146 0.539732,-0.172255 1.079291,-0.258383 1.619023,-0.258383 z"
       style="font-style:normal;font-variant:normal;font-weight:bold;font-stretch:normal;font-size:35.2778px;line-height:1.25;font-family:Tahoma;-inkscape-font-specification:'Tahoma Bold';fill:#ffbb00;fill-opacity:1;stroke:#000000;stroke-width:0.264583;stroke-opacity:1"
       id="path843" />
    <path
       inkscape:connector-curvature="0"
       d="m 106.29635,0 v 6.1190062 c 0.57928,-0.032672 1.22249,0.052057 1.94045,0.414445 a 1.5029126,1.5029126 0 0 1 1.13843,-0.5219319 1.5029126,1.5029126 0 0 1 1.15859,0.5457031 c 0.49819,-0.2695779 1.07144,-0.5171901 1.79162,-0.5575888 V 0 Z m 6.02909,6.6817625 c -0.52449,0.03753 -1.027,0.1664777 -1.51515,0.3860232 a 1.5029126,1.5029126 0 0 1 0.0677,0.4464843 1.5029126,1.5029126 0 0 1 -0.061,0.4237466 c 0.47106,0.00617 0.97685,0.073976 1.50843,0.3038576 z m -6.02909,0.080099 v 2.3037352 c 0.40288,-0.4178876 0.92325,-0.7992094 1.67277,-1.0206095 a 1.5029126,1.5029126 0 0 1 -0.0966,-0.5307169 1.5029126,1.5029126 0 0 1 0.0584,-0.4144452 c -0.54211,-0.2104231 -1.0841,-0.3276824 -1.63453,-0.3379636 z m 4.19096,1.7631997 a 1.5029126,1.5029126 0 0 1 -1.11208,0.4924764 1.5029126,1.5029126 0 0 1 -1.03094,-0.4097941 c -0.81382,0.2690569 -1.49279,0.703625 -2.04794,1.3379029 V 26.803014 h 6.02909 V 8.9880817 c -0.58365,-0.2848133 -1.19123,-0.4415149 -1.83813,-0.4630205 z"
       style="font-style:normal;font-variant:normal;font-weight:bold;font-stretch:normal;font-size:35.2778px;line-height:1.25;font-family:Tahoma;-inkscape-font-specification:'Tahoma Bold';fill:#ffbb00;fill-opacity:1;stroke:#000000;stroke-width:0.264583;stroke-opacity:1"
       id="path845" />
    <path
       inkscape:connector-curvature="0"
       d="m 125.89877,6.8559121 c -3.26136,0 -5.79907,0.9413137 -7.61349,2.8246339 -1.81441,1.88332 -2.72179,4.404322 -2.72179,7.562329 0,3.226908 0.97071,5.712943 2.91145,7.458459 1.95222,1.745516 4.7544,2.618445 8.4062,2.618445 0.99908,0 1.84261,-0.05167 2.53163,-0.15503 0.70051,-0.09187 1.37838,-0.224115 2.03295,-0.396356 0.71199,-0.172257 1.26877,-0.338941 1.6707,-0.499713 0.41341,-0.172254 0.86736,-0.355648 1.36116,-0.55087 v -4.978508 h -0.63769 c -0.26412,0.195222 -0.60863,0.419153 -1.03353,0.671794 -0.4134,0.25264 -0.86684,0.488227 -1.36064,0.706417 -0.5627,0.25264 -1.18282,0.459346 -1.86035,0.620117 -0.67754,0.149287 -1.36656,0.223759 -2.06706,0.223759 -0.81534,0 -1.56769,-0.07447 -2.25671,-0.223759 -0.68902,-0.160771 -1.29191,-0.419153 -1.80867,-0.775147 -0.52825,-0.355992 -0.95332,-0.832736 -1.27486,-1.429886 -0.32156,-0.608634 -0.51104,-1.360468 -0.56844,-2.256193 h 1.71101 c 0.66803,-1.176584 1.76718,-2.270993 4.12223,-2.664437 0.006,-0.0019 0.013,-0.0077 0.0207,-0.01085 l 0.002,0.0031 c 0.0307,-0.0052 0.0476,-0.01728 0.078,-0.02274 a 0.69244617,0.58041298 42.24309 0 1 0.48782,1.235584 c -1.09358,0.333249 -2.0024,0.812686 -2.72748,1.459342 h 2.65617 c 0.67394,-1.135707 1.77674,-2.176409 4.06073,-2.557983 0.006,-0.002 0.0133,-0.0083 0.0212,-0.01137 v 5.3e-4 l 0.002,0.0031 c 0.0307,-0.0052 0.0476,-0.01676 0.078,-0.02222 a 0.69244617,0.58041298 42.24309 0 1 0.48835,1.235067 c -1.03247,0.314629 -1.89991,0.760032 -2.60398,1.352889 h 4.81573 v -2.170411 c 0,-2.974268 -0.74626,-5.259684 -2.23914,-6.8559117 -1.49288,-1.5962286 -3.72105,-2.3941693 -6.68383,-2.3941693 z m 3.86127,2.4370606 a 0.55699527,0.40316994 16.239038 0 1 0.34881,0.8180383 c -1.0785,0.25516 -1.9456,0.640796 -2.60139,1.178222 0.17774,0.12587 0.33647,0.272788 0.47594,0.441317 0.0173,0.02047 0.0318,0.04406 0.0486,0.06511 0.59139,-0.450367 1.44092,-0.818049 2.74763,-0.987536 0.005,-0.0013 0.0114,-0.0052 0.0181,-0.0072 h 0.001 l 0.001,0.0021 c 0.026,-0.0034 0.0398,-0.01088 0.0656,-0.01447 a 0.55699527,0.40316994 16.239038 0 1 0.41444,0.813386 c -1.12682,0.266592 -2.0229,0.674698 -2.68821,1.25057 0.1712,0.509376 0.26879,1.103654 0.28732,1.789038 h -7.28643 c 0.0449,-0.785503 0.21609,-1.461931 0.50953,-2.032951 -0.59905,-0.393735 -1.3341,-0.691828 -2.21486,-0.900203 a 0.40316994,0.55699527 73.760962 0 1 0.41393,-0.813387 c 0.0258,0.0036 0.0401,0.01107 0.0661,0.01447 l 0.001,-0.0021 h 0.001 c 0.007,0.002 0.0126,0.0059 0.0176,0.0072 1.07408,0.139313 1.83821,0.413244 2.40554,0.756026 0.20428,-0.193676 0.43007,-0.357594 0.67748,-0.491443 -0.61443,-0.424428 -1.37968,-0.742712 -2.30529,-0.961698 a 0.40316994,0.55699527 73.760962 0 1 0.41445,-0.8133872 c 0.0258,0.00359 0.0401,0.011586 0.0661,0.014986 l 10e-4,-0.00259 5.3e-4,5.292e-4 c 0.007,0.00201 0.0131,0.00593 0.0181,0.00723 1.64065,0.2128004 2.56177,0.736977 3.1533,1.346687 0.19767,-0.02351 0.40081,-0.03927 0.61546,-0.03927 0.31899,0 0.61227,0.02873 0.88522,0.0801 0.58423,-0.671597 1.51814,-1.2641836 3.28972,-1.4939655 0.005,-0.0013 0.0114,-0.00523 0.0181,-0.00723 l 5.3e-4,-5.292e-4 0.001,0.00259 c 0.026,-0.0034 0.0403,-0.011396 0.0661,-0.014986 a 0.55699527,0.40316994 16.239038 0 1 0.0656,-0.00465 z"
       style="font-style:normal;font-variant:normal;font-weight:bold;font-stretch:normal;font-size:35.2778px;line-height:1.25;font-family:Tahoma;-inkscape-font-specification:'Tahoma Bold';fill:#ffbb00;fill-opacity:1;stroke:#000000;stroke-width:0.264583;stroke-opacity:1"
       id="path847" />
    <path
       inkscape:connector-curvature="0"
       d="m 137.92233,0 v 26.803014 h 5.77071 l 0.25838,-0.964798 c 0.80385,0.459346 1.56178,0.798285 2.27376,1.016476 0.71199,0.218189 1.55046,0.327112 2.51509,0.327112 2.30822,-2e-6 4.24304,-0.947402 5.80482,-2.842205 1.56177,-1.906287 2.34249,-4.398409 2.34249,-7.476029 0,-3.112071 -0.61403,-5.54643 -1.84278,-7.3034303 -1.21727,-1.7569984 -2.95148,-2.6354979 -5.20227,-2.6354979 -1.20579,0 -2.26819,0.2355869 -3.18688,0.7064169 -0.9187,0.47083 -1.81999,1.0848599 -2.70423,1.8427816 V 0 Z m 9.21597,11.610144 c 0.96281,0 1.72423,0.263046 2.29185,0.780314 0.81569,-0.248463 1.57122,-0.349466 2.26911,-0.335897 1.21836,0.02369 2.26384,0.370786 3.21273,0.736389 0.018,0.0057 0.0368,-8.6e-5 0.0548,0.0057 l -0.002,0.0062 c 0.0132,0.0051 0.0313,0.0047 0.0444,0.0098 a 0.74260923,0.74260923 0 0 1 -0.49609,1.398365 c -1.37024,-0.439685 -2.74947,-0.522163 -4.16461,-0.27957 0.12245,0.395445 0.21488,0.847031 0.27647,1.357023 2.07053,0.352712 3.39123,1.425781 4.46433,2.475301 0.0104,0.009 0.0247,0.01057 0.0351,0.01964 l -0.002,0.0036 c 0.01,0.0093 0.0256,0.01598 0.0351,0.02532 a 0.74260923,0.74260923 0 0 1 -1.00821,1.089856 c -1.01082,-0.880116 -2.15131,-1.478582 -3.43079,-1.828312 -0.004,0.595673 -0.0446,1.141777 -0.11834,1.644344 1.44122,1.01085 2.19189,2.303625 2.7621,3.512447 0.008,0.01376 0.0219,0.02133 0.0295,0.03514 l -0.004,0.0016 c 0.006,0.01298 0.0198,0.02632 0.0259,0.03927 a 0.74300484,0.74300484 0 0 1 -1.32653,0.669727 c -0.51874,-0.953221 -1.18139,-1.762615 -1.98645,-2.447396 -0.13377,0.294024 -0.28845,0.560141 -0.4656,0.796333 -0.71199,0.964628 -1.79719,1.446941 -3.25561,1.446941 -0.40193,0 -0.80977,-0.02888 -1.22319,-0.0863 -0.40192,-0.05742 -0.80368,-0.16634 -1.20561,-0.327112 v -2.052588 c -0.7945,0.694068 -1.49136,1.547034 -2.10426,2.559534 a 0.74260923,0.74260923 0 0 1 -1.3162,-0.680062 c 0.0152,-0.03452 0.0344,-0.05276 0.0496,-0.08682 l -0.003,-0.0016 c 0.005,-0.0089 0.0146,-0.01394 0.0196,-0.02274 0.92102,-2.042971 2.11564,-3.17793 3.35432,-3.879867 V 17.11572 c -1.18684,0.394237 -2.30985,1.05161 -3.39307,1.962671 a 0.74260923,0.74260923 0 0 1 -1.02784,-1.067635 c 0.0254,-0.02783 0.0491,-0.03879 0.0744,-0.06615 l -0.003,-0.0026 c 0.008,-0.0067 0.0178,-0.0084 0.0258,-0.01499 1.49232,-1.599607 2.95346,-2.295163 4.32325,-2.575553 v -1.41025 c -1.28834,-0.02989 -2.60242,0.227734 -3.9641,0.754476 a 0.74260923,0.74260923 0 0 1 -0.62632,-1.34307 c 0.0331,-0.01809 0.0592,-0.02057 0.092,-0.03824 l -0.001,-0.0036 c 0.01,-0.0035 0.0191,-0.002 0.0289,-0.0057 1.99753,-1.065198 3.65039,-1.227338 5.06946,-1.016475 0.32073,-0.171276 0.64328,-0.314108 0.96841,-0.42013 0.53973,-0.172254 1.07981,-0.258382 1.61954,-0.258382 z"
       style="font-style:normal;font-variant:normal;font-weight:bold;font-stretch:normal;font-size:35.2778px;line-height:1.25;font-family:Tahoma;-inkscape-font-specification:'Tahoma Bold';fill:#ffbb00;fill-opacity:1;stroke:#000000;stroke-width:0.264583;stroke-opacity:1"
       id="path849" />
    <path
       inkscape:connector-curvature="0"
       d="m 169.16952,6.8559121 c -3.26136,0 -5.79907,0.9413137 -7.61349,2.8246339 -1.81442,1.88332 -2.7218,4.404322 -2.7218,7.562329 0,3.226908 0.97019,5.712943 2.91093,7.458459 1.95222,1.745516 4.7544,2.618445 8.40621,2.618445 0.99908,0 1.84312,-0.05167 2.53214,-0.15503 0.7005,-0.09187 1.37787,-0.22411 2.03244,-0.396356 0.71198,-0.172257 1.26928,-0.338941 1.67122,-0.499713 0.4134,-0.172254 0.86683,-0.355648 1.36063,-0.55087 v -4.978508 h -0.63717 c -0.26412,0.195222 -0.60863,0.419153 -1.03352,0.671794 -0.41342,0.25264 -0.86736,0.488227 -1.36116,0.706417 -0.27145,0.121873 -0.55656,0.232818 -0.85473,0.333313 -0.60502,0.853804 -0.9935,1.783378 -1.15549,2.806547 a 0.83687284,0.6803341 9.139587 0 1 -1.65777,-0.222726 c 5.2e-4,-0.0121 0.0102,-0.02599 0.0103,-0.03876 l -0.005,-0.0021 c 0.003,-0.01188 0.0131,-0.02215 0.016,-0.03359 0.0558,-0.648958 0.15656,-1.333489 0.39997,-2.025716 -0.22572,0.01584 -0.45242,0.02687 -0.68058,0.02687 -0.81534,0 -1.56717,-0.07447 -2.25619,-0.223759 -0.13955,-0.03256 -0.27318,-0.07208 -0.40566,-0.112655 -0.5829,0.507207 -1.0641,1.099366 -1.44126,1.785938 a 0.83687284,0.6803341 28.924677 0 1 -1.48414,-0.770496 c 0.004,-0.01125 0.0183,-0.02109 0.0227,-0.03307 l -0.004,-0.0036 c 0.007,-0.01016 0.0198,-0.01658 0.0264,-0.02635 0.28809,-0.62631 0.63452,-1.273372 1.14257,-1.87017 -0.37562,-0.318761 -0.68969,-0.709752 -0.94,-1.174605 -0.32156,-0.608634 -0.51104,-1.360468 -0.56844,-2.256193 h 13.21211 v -2.17041 c 0,-2.974268 -0.74678,-5.259685 -2.23965,-6.8559123 -1.49288,-1.5962286 -3.72053,-2.3941693 -6.68332,-2.3941693 z m 5.44617,2.3306071 a 0.83687284,0.6803341 28.924677 0 1 0.493,1.4117998 c -1.39848,0.38859 -2.55408,0.952966 -3.46904,1.717208 0.31396,0.609518 0.48458,1.384094 0.51005,2.325956 h -7.28638 c 0.0502,-0.879186 0.258,-1.622432 0.6196,-2.232938 -1.04161,-0.522232 -2.12133,-0.770314 -3.25923,-0.729155 a 0.83687284,0.6803341 88.071865 0 1 -0.0997,-1.669149 c 0.0117,-0.0023 0.0273,0.0045 0.0398,0.0021 l 0.001,-0.0052 c 0.0123,7.94e-4 0.0244,0.0086 0.0362,0.0093 1.38966,-0.1497693 2.9759,-0.14115 4.69119,1.086238 0.51628,-0.245424 1.1189,-0.371037 1.81229,-0.371037 0.60022,0 1.11687,0.09301 1.55391,0.274919 0.87171,-0.810505 2.13618,-1.4760684 4.11603,-1.7776693 0.008,-0.0023 0.0165,-0.00887 0.0264,-0.012401 h 5.3e-4 l 0.002,0.00362 c 0.0382,-0.0059 0.0592,-0.019637 0.0971,-0.025839 a 0.83687284,0.6803341 28.924677 0 1 0.11524,-0.00775 z"
       style="font-style:normal;font-variant:normal;font-weight:bold;font-stretch:normal;font-size:35.2778px;line-height:1.25;font-family:Tahoma;-inkscape-font-specification:'Tahoma Bold';fill:#ffbb00;fill-opacity:1;stroke:#000000;stroke-width:0.264583;stroke-opacity:1"
       id="path851" />
    <path
       inkscape:connector-curvature="0"
       d="m 190.11553,6.8559121 c -3.26136,0 -5.79908,0.9413137 -7.61349,2.8246339 -1.81442,1.88332 -2.7218,4.404322 -2.7218,7.562329 0,3.226908 0.97071,5.712943 2.91145,7.458459 1.95222,1.745516 4.75388,2.618445 8.40569,2.618445 0.99907,0 1.84313,-0.05167 2.53214,-0.15503 0.70051,-0.09187 1.37839,-0.224115 2.03295,-0.396356 0.71199,-0.172257 1.26878,-0.338941 1.6707,-0.499713 0.41342,-0.172254 0.86684,-0.355648 1.36064,-0.55087 v -4.978508 h -0.63717 c -0.26412,0.195222 -0.60863,0.419153 -1.03353,0.671794 -0.4134,0.25264 -0.86684,0.488227 -1.36064,0.706417 -0.25944,0.116485 -0.53263,0.222405 -0.81648,0.31936 -0.61074,0.857642 -1.00295,1.791721 -1.16583,2.8205 a 0.83687284,0.6803341 9.139587 0 1 -1.65726,-0.222726 c 5.3e-4,-0.0121 0.01,-0.02599 0.01,-0.03876 l -0.005,-0.0021 c 0.003,-0.01188 0.0131,-0.02215 0.016,-0.03359 0.0559,-0.649636 0.15703,-1.334818 0.401,-2.027784 -0.23554,0.01723 -0.47183,0.02894 -0.71003,0.02894 -0.81534,0 -1.56769,-0.07447 -2.25671,-0.223759 -0.1319,-0.03078 -0.25785,-0.06852 -0.38344,-0.106453 -0.57981,0.505886 -1.05886,1.09586 -1.43454,1.779736 a 0.83687284,0.6803341 28.924677 0 1 -1.48466,-0.770496 c 0.004,-0.01125 0.0183,-0.02109 0.0227,-0.03307 l -0.004,-0.0036 c 0.007,-0.01016 0.0198,-0.01658 0.0264,-0.02635 0.28582,-0.621365 0.63022,-1.262821 1.13172,-1.8557 -0.38336,-0.321384 -0.70342,-0.717059 -0.95757,-1.189075 -0.32156,-0.608634 -0.51104,-1.360468 -0.56844,-2.256193 h 13.21211 v -2.17041 c 0,-2.974268 -0.74626,-5.259685 -2.23914,-6.8559122 -1.49287,-1.5962285 -3.72105,-2.3941693 -6.68382,-2.3941693 z m 2.25825,0.6066814 a 0.55299398,0.53055805 8.872312 0 1 0.42479,0.8852172 c -0.76653,0.8366239 -1.30112,1.7149163 -1.59577,2.6582353 0.0993,0.04124 0.19419,0.08706 0.28525,0.13746 0.30237,-0.754021 0.83087,-1.532598 1.7446,-2.3130374 0.004,-0.0043 0.007,-0.012189 0.0108,-0.018087 l -5.3e-4,-5.291e-4 h 0.001 l -5.3e-4,5.291e-4 0.003,0.00156 c 0.0207,-0.017719 0.0292,-0.034889 0.0496,-0.05271 a 0.55299398,0.53055805 8.8723115 0 1 0.78083,0.7575765 c -0.75835,0.8277069 -1.29088,1.6963769 -1.5875,2.6282639 0.37436,0.633102 0.57876,1.462037 0.60668,2.494421 h -7.28638 c 0.0562,-0.983735 0.31051,-1.796361 0.75655,-2.443779 -0.29328,-0.951029 -0.82996,-1.836283 -1.60197,-2.6789059 a 0.53055805,0.55299398 81.127688 0 1 0.42478,-0.8852173 0.53055805,0.55299398 81.127688 0 1 0.35605,0.1276408 c 0.0204,0.01782 0.0284,0.034991 0.0491,0.05271 l 0.003,-0.00156 -5.3e-4,-5.291e-4 h 10e-4 l -5.3e-4,5.291e-4 c 0.004,0.0059 0.007,0.013782 0.0108,0.018087 0.95165,0.8128217 1.4848,1.6234544 1.78026,2.4065714 0.1903,-0.112007 0.39493,-0.203989 0.61185,-0.279053 -0.31256,-0.765622 -0.78912,-1.4894989 -1.42576,-2.1843625 a 0.53055805,0.55299398 81.127688 0 1 0.4253,-0.8852172 0.53055805,0.55299398 81.127688 0 1 0.35554,0.1276408 c 0.0204,0.01782 0.0289,0.034991 0.0496,0.05271 l 0.003,-0.00156 -5.3e-4,-5.292e-4 h 10e-4 l -5.3e-4,5.292e-4 c 0.004,0.00589 0.007,0.013269 0.0109,0.017571 1.0509,0.8976027 1.59261,1.7929704 1.86552,2.6510009 0.0557,-0.0017 0.11053,-0.0041 0.16743,-0.0041 0.11095,0 0.21656,0.0057 0.32194,0.01189 0.21939,-0.9875788 0.75355,-2.0346131 1.98283,-3.0845665 0.004,-0.0043 0.007,-0.011673 0.0109,-0.017571 l -5.3e-4,-5.292e-4 h 0.001 l -5.2e-4,5.292e-4 0.003,0.00156 c 0.0207,-0.017719 0.0287,-0.034889 0.0491,-0.05271 a 0.55299398,0.53055805 8.872312 0 1 0.35604,-0.1276408 z"
       style="font-style:normal;font-variant:normal;font-weight:bold;font-stretch:normal;font-size:35.2778px;line-height:1.25;font-family:Tahoma;-inkscape-font-specification:'Tahoma Bold';fill:#ffbb00;fill-opacity:1;stroke:#000000;stroke-width:0.264583;stroke-opacity:1"
       id="path853" />
  </g>
</svg>
